<svg width="580" height="400" xmlns="http://www.w3.org/2000/svg">
 <!-- Created with SVG Editor - http://github.com/mzalive/SVG Editor/ -->

 <g>
  <title>background</title>
  <rect fill="#fff" id="canvas_background" height="402" width="582" y="-1" x="-1"/>
  <g display="none" overflow="visible" y="0" x="0" height="100%" width="100%" id="canvasGrid">
   <rect fill="url(#gridpattern)" stroke-width="0" y="0" x="0" height="100%" width="100%"/>
  </g>
 </g>
 <g>
  <title>Layer 1</title>
  <g stroke="null" id="svg_21">
   <path stroke="#070707" id="svg_4" stroke-width="0.5" fill="#070707" d="m253.290819,158.42977c0,-24.013656 -26.833281,-43.547769 -59.81919,-43.547769l-89.729803,0l0,152.416911l89.729803,0c32.985909,0 59.81919,-19.533555 59.81919,-43.547769c0,-12.996048 -7.869908,-24.674003 -20.317445,-32.660594c12.447537,-7.986591 20.317445,-19.664547 20.317445,-32.66078zm-29.909213,65.321374c0,12.006642 -13.416768,21.774349 -29.909977,21.774349l-59.819954,0l0,-43.547769l59.819954,0c16.493209,0 29.909977,9.766777 29.909977,21.77342zm-89.72993,-43.547583l0,-43.547769l59.819954,0c16.493209,0 29.909977,9.767149 29.909977,21.773977c0,12.006735 -13.416768,21.773791 -29.909977,21.773791l-59.819954,0z"/>
   <path stroke="#070707" id="svg_9" stroke-width="0.5" fill="#070707" d="m413.515669,8.978727l-333.487053,0c-38.098188,0 -69.09266,22.563469 -69.09266,50.298248l0,242.772412c0,27.734779 30.994472,50.29842 69.09266,50.29842l333.487053,0c38.09854,0 69.093365,-22.563641 69.093365,-50.29842l0,-242.772412c0,-27.734779 -30.994825,-50.298248 -69.093365,-50.298248zm41.455784,293.07066c0,16.640524 -18.59713,30.178708 -41.455784,30.178708l-333.487053,0c-22.858184,0 -41.455666,-13.538184 -41.455666,-30.178708l0,-242.772412c0,-16.640352 18.597483,-30.178966 41.455666,-30.178966l333.487053,0c22.858654,0 41.455784,13.538614 41.455784,30.178966l0,242.772412z"/>
   <path stroke="#070707" id="svg_14" stroke-width="0.5" fill="#070707" d="m348.810048,158.770655c-40.925044,0 -74.219511,24.237644 -74.219511,54.030414c0,29.79277 33.294467,54.030229 74.219511,54.030229c26.41371,0 51.045209,-10.347107 64.280738,-27.006585l-25.698122,-10.822921c-7.94776,10.004078 -22.733707,16.217598 -38.582616,16.217598c-19.355098,0 -35.861109,-9.03327 -41.988131,-21.612276l116.207515,0l0,-10.806046c0,-29.79277 -33.294215,-54.030414 -74.219385,-54.030414zm-41.988131,43.224368c6.127022,-12.579006 22.633033,-21.612276 41.988131,-21.612276c19.355098,0 35.861235,9.03327 41.988131,21.612276l-83.976261,0z"/>
   <path stroke="#070707" id="svg_19" stroke-width="0.5" fill="#070707" d="m283.797636,114.463779l128.987338,0l0,23.475021l-128.987338,0l0,-23.475021z"/>
  </g>
 </g>
</svg>